<svg width="48" height="48" viewBox="0 0 48 48" fill="none" xmlns="http://www.w3.org/2000/svg">
<path d="M47.29 23.79C47.29 29.2269 45.4049 34.4955 41.9558 38.6983C38.5067 42.901 33.707 45.7778 28.3747 46.8385C23.0423 47.8992 17.5071 47.0781 12.7122 44.5152C7.91734 41.9523 4.15946 37.8061 2.07887 32.7831C-0.00172168 27.7601 -0.276293 22.1711 1.30194 16.9684C2.88017 11.7656 6.21356 7.27106 10.7341 4.2505C15.2547 1.22995 20.6828 -0.129706 26.0934 0.403198C31.5041 0.936101 36.5626 3.3286 40.407 7.17303L37.8386 9.74152C34.5884 6.49133 30.3117 4.46864 25.7374 4.01811C21.1631 3.56757 16.574 4.71707 12.7522 7.27073C8.93036 9.8244 6.11222 13.6242 4.77793 18.0228C3.44365 22.4213 3.67578 27.1465 5.43477 31.393C7.19377 35.6396 10.3708 39.1449 14.4245 41.3117C18.4782 43.4785 23.1579 44.1726 27.666 43.2759C32.1742 42.3792 36.2319 39.947 39.1479 36.3939C42.0639 32.8408 43.6576 28.3865 43.6576 23.79H47.29Z" fill="white"/>
<path d="M15.3059 39.0958C11.7648 37.1329 9.01386 34.003 7.52178 30.2392C6.02971 26.4755 5.88882 22.3108 7.12313 18.4548C8.35744 14.5988 10.8906 11.2901 14.2909 9.09244C17.6913 6.89477 21.7484 5.9441 25.7711 6.40243C29.7938 6.86076 33.5331 8.69972 36.352 11.606C39.1708 14.5122 40.8947 18.306 41.23 22.3408C41.5652 26.3756 40.4911 30.4018 38.1906 33.7335C35.8901 37.0651 32.5056 39.496 28.6137 40.612L27.8681 38.0118C31.1584 37.0683 34.0198 35.0132 35.9647 32.1965C37.9096 29.3798 38.8177 25.9759 38.5343 22.5648C38.2508 19.1536 36.7934 15.9463 34.4103 13.4893C32.0271 11.0322 28.8658 9.4775 25.4649 9.09002C22.064 8.70254 18.634 9.50626 15.7592 11.3642C12.8844 13.2222 10.7429 16.0195 9.69934 19.2795C8.65582 22.5394 8.77493 26.0604 10.0364 29.2424C11.2978 32.4243 13.6235 35.0705 16.6173 36.73L15.3059 39.0958Z" fill="white"/>
<path d="M23.79 11.29C26.682 11.29 29.4845 12.2928 31.72 14.1274C33.9555 15.962 35.4857 18.515 36.0499 21.3514C36.614 24.1878 36.1773 27.132 34.8141 29.6825C33.4508 32.233 31.2454 34.2318 28.5736 35.3385C25.9018 36.4452 22.9289 36.5913 20.1615 35.7518C17.3941 34.9123 15.0033 33.1392 13.3967 30.7347C11.79 28.3301 11.0668 25.4428 11.3502 22.5648C11.6337 19.6868 12.9063 16.9961 14.9512 14.9512L16.3174 16.3174C14.5886 18.0463 13.5127 20.321 13.2731 22.7542C13.0334 25.1874 13.6448 27.6283 15.0032 29.6612C16.3615 31.6941 18.3827 33.1931 20.7223 33.9029C23.062 34.6126 25.5754 34.4891 27.8342 33.5535C30.093 32.6178 31.9575 30.9279 33.1101 28.7717C34.2626 26.6155 34.6318 24.1263 34.1549 21.7283C33.6779 19.3304 32.3842 17.172 30.4942 15.621C28.6043 14.0699 26.235 13.2222 23.79 13.2222L23.79 11.29Z" fill="white"/>
<path d="M16.3202 19.7343C17.2585 18.0061 18.7671 16.6567 20.5888 15.916C22.4105 15.1754 24.4327 15.0893 26.3107 15.6725C28.1888 16.2556 29.8066 17.4719 30.8884 19.1141C31.9702 20.7563 32.4491 22.7229 32.2436 24.6786C32.038 26.6344 31.1607 28.4583 29.7611 29.8397C28.3615 31.2211 26.5262 32.0745 24.5679 32.2545C22.6096 32.4344 20.6495 31.9298 19.0216 30.8266C17.3937 29.7233 16.1987 28.0898 15.6402 26.2043L17.0174 25.7963C17.4815 27.3632 18.4746 28.7207 19.8274 29.6375C21.1802 30.5543 22.8091 30.9737 24.4365 30.8241C26.0638 30.6746 27.589 29.9654 28.7521 28.8175C29.9152 27.6695 30.6443 26.1537 30.8151 24.5285C30.9859 22.9032 30.5879 21.269 29.6889 19.9043C28.7899 18.5396 27.4455 17.5288 25.8848 17.0442C24.3241 16.5596 22.6436 16.6311 21.1298 17.2466C19.6159 17.8621 18.3622 18.9835 17.5825 20.4196L16.3202 19.7343Z" fill="white"/>
<path d="M27.5097 26.3227C26.9238 27.1833 26.0576 27.8141 25.0587 28.1076C24.0598 28.4011 22.9901 28.3392 22.0318 27.9324C21.0734 27.5256 20.2858 26.7991 19.8031 25.8767C19.3203 24.9543 19.1723 23.893 19.3844 22.8737C19.5964 21.8544 20.1552 20.9402 20.9658 20.2868C21.7763 19.6334 22.7883 19.2812 23.8293 19.2903C24.8704 19.2994 25.8761 19.6692 26.6751 20.3366C27.4741 21.0041 28.0169 21.9279 28.2111 22.9508L27.3835 23.1079C27.2256 22.2765 26.7844 21.5256 26.135 20.9831C25.4856 20.4406 24.6682 20.14 23.822 20.1326C22.9758 20.1253 22.1532 20.4115 21.4945 20.9426C20.8357 21.4737 20.3814 22.2168 20.2091 23.0453C20.0368 23.8737 20.157 24.7363 20.5494 25.4861C20.9418 26.2358 21.582 26.8263 22.3609 27.157C23.1399 27.4876 24.0093 27.5379 24.8212 27.2994C25.6331 27.0608 26.3371 26.5481 26.8134 25.8486L27.5097 26.3227Z" fill="white"/>
<path d="M22.9968 21.4192C23.5453 21.2357 24.1405 21.248 24.6809 21.4541C25.2213 21.6602 25.6736 22.0473 25.9606 22.5495C26.2476 23.0516 26.3516 23.6378 26.2549 24.208C26.1582 24.7783 25.8667 25.2973 25.4302 25.6768C24.9937 26.0563 24.4391 26.2726 23.861 26.289C23.2828 26.3054 22.7169 26.1209 22.2595 25.7668C21.8022 25.4127 21.4818 24.9109 21.3529 24.3471C21.224 23.7832 21.2947 23.1922 21.5527 22.6745L22.4295 23.1117C22.2725 23.4264 22.2296 23.7859 22.308 24.1288C22.3863 24.4717 22.5812 24.7768 22.8593 24.9921C23.1374 25.2075 23.4816 25.3197 23.8332 25.3098C24.1848 25.2998 24.522 25.1682 24.7875 24.9374C25.053 24.7067 25.2302 24.391 25.289 24.0442C25.3478 23.6974 25.2846 23.341 25.11 23.0356C24.9355 22.7302 24.6605 22.4948 24.3318 22.3695C24.0032 22.2442 23.6412 22.2367 23.3077 22.3483L22.9968 21.4192Z" fill="white"/>
<circle cx="23.79" cy="23.79" r="0.5" transform="rotate(-180 23.79 23.79)" fill="white"/>
</svg>
